<svg xmlns="http://www.w3.org/2000/svg" width="300" height="300" viewBox="0 0 300 300">
  <defs>
    <linearGradient id="bg_hp_pavilion" x1="0%" y1="0%" x2="100%" y2="100%">
      <stop offset="0%" style="stop-color:#F3E5F5"/>
      <stop offset="100%" style="stop-color:#E1BEE7"/>
    </linearGradient>
  </defs>
  <rect width="300" height="300" fill="url(#bg_hp_pavilion)" rx="8"/>
  <rect x="55" y="50" width="190" height="120" rx="6" fill="#1a1a1a" stroke="#333" stroke-width="2"/>
           <rect x="65" y="58" width="170" height="100" rx="2" fill="#0D47A1"/>
           <defs><linearGradient id="screen" x1="0%" y1="0%" x2="100%" y2="100%">
             <stop offset="0%" style="stop-color:#1565C0"/>
             <stop offset="50%" style="stop-color:#7B1FA2"/>
             <stop offset="100%" style="stop-color:#E65100"/>
           </linearGradient></defs>
           <rect x="65" y="58" width="170" height="100" rx="2" fill="url(#screen)"/>
           <path d="M 45 170 L 55 170 L 245 170 L 255 170 L 255 180 C 255 185 250 188 245 188 L 55 188 C 50 188 45 185 45 180 Z" fill="#222" stroke="#333" stroke-width="1"/>
           <rect x="120" y="172" width="60" height="4" rx="2" fill="#444"/>
           <polygon points="150,65 155,75 165,75 157,82 160,92 150,86 140,92 143,82 135,75 145,75" fill="#FFD600" opacity="0.6"/>
  <text x="150" y="270" text-anchor="middle" font-family="Arial, sans-serif" font-size="14" font-weight="bold" fill="#333">HP Pavilion</text>
  <text x="150" y="288" text-anchor="middle" font-family="Arial, sans-serif" font-size="11" fill="#666">Gaming Laptop</text>
</svg>